# AST/ASF file generated using VICON BodyLanguage
# -----------------------------------------------
:version 1.10
:name VICON
:units
  mass 1.0
  length 0.45
  angle deg
:documentation
   .ast/.asf automatically generated from VICON data using
   VICON BodyBuilder and BodyLanguage model FoxedUp or BRILLIANT.MOD
:root
   order TX TY TZ RX RY RZ
   axis XYZ
   position 0 0 0  
   orientation 0 0 0 
:bonedata
  begin
     id 1 
     name lhipjoint
     direction 0.575328 -0.747301 0.332475 
     length 2.40933 
     axis 0 0 0  XYZ
  end
  begin
     id 2 
     name lfemur
     direction 0.34202 -0.939693 0  
     length 7.31453  
     axis 0 0 20  XYZ
    dof rx ry rz
    limits (-160.0 20.0)
           (-70.0 70.0)
           (-60.0 70.0)
  end
  begin
     id 3 
     name ltibia
     direction 0.34202 -0.939693 0   
     length 7.82185   
     axis 0 0 20   XYZ
    dof rx
    limits (-10.0 170.0)
  end
  begin
     id 4 
     name lfoot
     direction 0.0795993 -0.218697 0.972541   
     length 2.19173   
     axis -90 7.62852e-016 20   XYZ
    dof rx rz
    limits (-45.0 90.0)
           (-70.0 20.0)
  end
  begin
     id 5 
     name ltoes
     direction 1.53537e-011 -4.21894e-011 1   
     length 1.10023   
     axis -90 7.62852e-016 20   XYZ
    dof rx
    limits (-90.0 20.0)
  end
  begin
     id 6 
     name rhipjoint
     direction -0.513884 -0.783789 0.348708   
     length 2.29716  
     axis 0 0 0  XYZ 
  end
  begin
     id 7 
     name rfemur
     direction -0.34202 -0.939693 0   
     length 7.59573   
     axis 0 0 -20   XYZ
    dof rx ry rz
    limits (-160.0 20.0)
           (-70.0 70.0)
           (-70.0 60.0)
  end
  begin
     id 8 
     name rtibia
     direction -0.34202 -0.939693 0   
     length 7.66402   
     axis 0 0 -20   XYZ
    dof rx
    limits (-10.0 170.0)
 end
 begin
     id 9 
     name rfoot
     direction -0.137793 -0.378584 0.915253   
     length 2.27056  
     axis -90 -7.62852e-016 -20   XYZ
    dof rx rz
    limits (-45.0 90.0)
           (-20.0 70.0)
  end
  begin
     id 10 
     name rtoes
     direction -1.53493e-011 -4.22159e-011 1   
     length 1.11766   
     axis -90 -7.62852e-016 -20   XYZ
    dof rx
    limits (-90.0 20.0)
  end
  begin
     id 11 
     name lowerback
     direction -0.00732775 0.998356 -0.05685   
     length 2.16513   
     axis 0 0 0   XYZ
    dof rx ry rz
    limits (-20.0 45.0)
           (-30.0 30.0)
           (-30.0 30.0)
  end
  begin
     id 12 
     name upperback
     direction 0.0218081 0.999627 -0.0164647   
     length 2.16755   
     axis 0 0 0   XYZ
    dof rx ry rz
    limits (-20.0 45.0)
           (-30.0 30.0)
           (-30.0 30.0)
  end
  begin
     id 13 
     name thorax
     direction 0.02365 0.999661 0.0108914   
     length 2.16932   
     axis 0 0 0   XYZ
    dof rx ry rz
    limits (-20.0 45.0)
           (-30.0 30.0)
           (-30.0 30.0)
  end
  begin
     id 14 
     name lowerneck
     direction -0.0523929 0.978385 0.200044   
     length 1.63877   
     axis 0 0 0   XYZ
    dof rx ry rz
    limits (-20.0 45.0)
           (-30.0 30.0)
           (-30.0 30.0)
  end
  begin
     id 15 
     name upperneck
     direction 0.0448674 0.981321 -0.187074   
     length 1.69014   
     axis 0 0 0   XYZ
    dof rx ry rz
    limits (-20.0 45.0)
           (-30.0 30.0)
           (-30.0 30.0)
  end
  begin
     id 16
     name head
     direction 0.0199089 0.996118 -0.0857429  
     length 1.70094  
     axis 0 0 0   XYZ
    dof rx ry rz
    limits (-20.0 45.0)
           (-30.0 30.0)
           (-30.0 30.0)
  end
  begin
     id 17 
     name lclavicle
     direction 0.940366 0.30191 -0.156722  
     length 3.37521  
     axis 0 0 0   XYZ
    dof ry rz
    limits (-20.0 10.0)
           (0.0 20.0)
  end
  begin
     id 18 
     name lhumerus
     direction 1 -4.4897e-011 -1.7911e-027   
     length 5.25287   
     axis 180 -30 -90   XYZ
    dof rx ry rz
    limits (-60.0 90.0)
           (-90.0 90.0)
           (-90.0 90.0)
  end
  begin
     id 19
     name lradius
     direction 1 -4.48951e-011 1.04424e-027   
     length 3.51014   
     axis 180 -30 -90   XYZ
    dof rx
    limits (-10.0 170.0)
  end
  begin
     id 20
     name lwrist
     direction 1 -4.48997e-011 -9.5942e-028   
     length 1.75507   
     axis 8.48502e-016 90 90   XYZ
    dof ry
    limits (-180.0 0.0)
 end
  begin
     id 21 
     name lhand
     direction 1 -4.48831e-011 -1.90777e-027   
     length 0.706179   
     axis 1.22306e-015 90 90   XYZ
    dof rx rz
    limits (-90.0 90.0)
           (-45.0 45.0)
  end
  begin
     id 22 
     name lfingers
     direction 1 -4.49108e-011 -3.85244e-027   
     length 0.569339   
     axis 2.44611e-015 90 90   XYZ
    dof rx
    limits (0.0 90.0)
  end
  begin
     id 23
     name lthumb
     direction 0.707107 -6.34953e-011 0.707107   
     length 0.817461   
     axis -90 45 -1.62303e-014   XYZ
    dof rx rz
    limits (-45.0 45.0)
           (-45.0 45.0)
  end
  begin
     id 24 
     name rclavicle
     direction -0.905329 0.382405 -0.184787   
     length 3.30787  
     axis 0 0 0   XYZ 
    dof ry rz
    limits (-10.0 20.0)
           (-20.0 0.0)
  end
  begin
     id 25 
     name rhumerus
     direction -1 -4.48953e-011 -9.15316e-029  
     length 5.28721   
     axis 180 30 90   XYZ
    dof rx ry rz
    limits (-90.0 60.0)
           (-90.0 90.0)
           (-90.0 90.0)
  end
  begin
     id 26 
     name rradius
     direction -1 -4.48987e-011 9.37824e-028   
     length 3.50544   
     axis 180 30 90   XYZ
    dof rx
    limits (-10.0 170.0)
  end
  begin
     id 27 
     name rwrist
     direction -1 -4.48967e-011 -9.58414e-028   
     length 1.75272   
     axis 8.48502e-016 -90 -90   XYZ
    dof ry
    limits (-180.0 0.0)
  end
  begin
     id 28
     name rhand
     direction -1 -4.48904e-011 -1.91266e-027   
     length 0.884996   
     axis 1.22306e-015 -90 -90   XYZ
    dof rx rz
    limits (-90.0 90.0)
           (-45.0 45.0)
  end
  begin
     id 29
     name rfingers
     direction -1 -4.4909e-011 -3.85015e-027   
     length 0.713507   
     axis 2.44611e-015 -90 -90   XYZ
    dof rx
    limits (0.0 90.0)
  end
  begin
     id 30
     name rthumb
     direction -0.707107 -6.34853e-011 0.707107   
     length 1.02446   
     axis -90 -45 1.62303e-014   XYZ
    dof rx rz
    limits (-45.0 45.0)
           (-45.0 45.0)
  end
:hierarchy
  begin
    root lhipjoint rhipjoint lowerback
    lhipjoint lfemur
    lfemur ltibia
    ltibia lfoot
    lfoot ltoes
    rhipjoint rfemur
    rfemur rtibia
    rtibia rfoot
    rfoot rtoes
    lowerback upperback
    upperback thorax
    thorax lowerneck lclavicle rclavicle
    lowerneck upperneck
    upperneck head
    lclavicle lhumerus
    lhumerus lradius
    lradius lwrist
    lwrist lhand lthumb
    lhand lfingers
    rclavicle rhumerus
    rhumerus rradius
    rradius rwrist
    rwrist rhand rthumb
    rhand rfingers
  end

#!OML:ASF F:\twosubjects\two\Thursday\Session 1\justin.ASF
:FULLY-SPECIFIED
:DEGREES
98
root 7.14327 9.33978 -18.2947 -31.7169 0.241853 -0.436781
lowerback 32.6921 3.27222 -3.31608
upperback 12.6367 3.23073 0.860731
thorax -3.59359 1.47402 1.76086
lowerneck -24.7923 -5.88854 -11.5459
upperneck 18.636 -6.58927 10.6974
head 10.8564 -2.5523 4.70612
rclavicle -1.29707e-014 -8.74653e-015
rhumerus -12.388 7.81433 -80.0043
rradius 90.6057
rwrist 14.6705
rhand -7.54943 26.6859
rfingers 7.12502
rthumb 18.3423 -2.46929
lclavicle -1.29707e-014 -8.74653e-015
lhumerus -9.37368 -13.1318 83.5325
lradius 81.2771
lwrist -31.2915
lhand -9.66706 27.3881
lfingers 7.12502
lthumb 16.3042 56.7227
rfemur -60.0312 -19.1512 2.87358
rtibia 99.2556
rfoot -5.04544 -3.24388
rtoes -2.74127
lfemur -58.134 18.7743 2.67609
ltibia 94.8959
lfoot -6.66118 -18.5899
ltoes -19.3007
99
root 7.14119 9.34728 -18.2905 -31.6519 0.383925 -0.18466
lowerback 33.1139 3.17343 -3.77491
upperback 12.412 2.93322 0.968482
thorax -3.52105 1.30522 2.06321
lowerneck -24.9891 -5.7016 -11.5585
upperneck 18.3733 -6.20646 10.4161
head 10.7346 -2.40734 4.66195
rclavicle -1.63003e-014 5.1684e-015
rhumerus -11.7682 8.33791 -79.8348
rradius 88.5674
rwrist 16.4319
rhand -6.48735 27.0662
rfingers 7.12502
rthumb 19.3638 -1.98964
lclavicle -1.63003e-014 5.1684e-015
lhumerus -8.7886 -12.3669 83.6026
lradius 79.4855
lwrist -32.3226
lhand -8.19002 26.88
lfingers 7.12502
lthumb 17.726 56.0921
rfemur -60.1041 -19.1983 2.5635
rtibia 99.2709
rfoot -4.98671 -3.12857
rtoes -2.96683
lfemur -58.1222 18.7931 2.32663
ltibia 94.8296
lfoot -6.37821 -18.5474
ltoes -17.2984
100
root 7.14021 9.3477 -18.2833 -31.6268 0.612879 0.213874
lowerback 33.1383 3.16605 -4.35118
upperback 12.6133 2.74748 0.994225
thorax -3.31845 1.1876 2.45752
lowerneck -25.4577 -5.61858 -11.831
upperneck 18.2498 -5.94396 10.5006
head 10.7517 -2.28432 4.78122
rclavicle 7.15625e-015 -4.17448e-015
rhumerus -11.3506 8.31871 -79.8161
rradius 86.6018
rwrist 18.5193
rhand -5.24424 27.5892
rfingers 7.12502
rthumb 20.5587 -1.34223
lclavicle 7.15625e-015 -4.17448e-015
lhumerus -8.21848 -11.9619 83.6748
lradius 77.9119
lwrist -32.9504
lhand -6.67101 26.3603
lfingers 7.12502
lthumb 19.1872 55.4338
rfemur -60.1753 -19.2882 2.02593
rtibia 99.3203
rfoot -4.88577 -2.89984
rtoes -4.09085
lfemur -57.9456 18.6432 1.84907
ltibia 94.7502
lfoot -6.13225 -18.3616
ltoes -15.802
101
root 7.1458 9.34881 -18.2737 -31.5263 0.711251 0.24335
lowerback 33.1119 3.11609 -4.32033
upperback 12.6673 2.69754 1.00285
thorax -3.24696 1.16223 2.46855
lowerneck -25.2775 -5.58097 -11.6028
upperneck 17.8218 -5.90613 10.2607
head 10.5416 -2.28322 4.6486
rclavicle -7.25564e-015 -1.0138e-014
rhumerus -11.1653 8.0402 -79.9279
rradius 84.728
rwrist 20.3362
rhand -3.49562 27.5866
rfingers 7.12502
rthumb 22.2382 -1.15405
lclavicle -7.25564e-015 -1.0138e-014
lhumerus -7.81903 -12.2121 83.6872
lradius 76.205
lwrist -33.2005
lhand -5.16993 25.9205
lfingers 7.12502
lthumb 20.6301 54.8442
rfemur -60.2056 -19.4424 1.91766
rtibia 99.3655
rfoot -4.89267 -2.818
rtoes -4.96648
lfemur -58.0128 18.5572 1.72313
ltibia 94.775
lfoot -6.2117 -18.2837
ltoes -15.7244
102
root 7.15509 9.34681 -18.2593 -31.265 0.749727 0.102953
lowerback 32.4927 2.95751 -3.89065
upperback 12.9643 2.67209 0.829031
thorax -3.11319 1.16947 2.26304
lowerneck -24.9305 -5.55576 -11.2836
upperneck 17.4856 -5.96318 10.0924
head 10.3487 -2.31553 4.51569
rclavicle 2.28602e-015 -6.95746e-015
rhumerus -10.8423 8.17759 -79.9262
rradius 82.7273
rwrist 21.4144
rhand -1.82581 26.7602
rfingers 7.12502
rthumb 23.8405 -1.78038
lclavicle 2.28602e-015 -6.95746e-015
lhumerus -7.41663 -12.9683 83.496
lradius 74.2191
lwrist -32.9188
lhand -4.38262 26.658
lfingers 7.12502
lthumb 21.3865 55.4977
rfemur -60.4188 -19.6658 2.03287
rtibia 99.4388
rfoot -4.81416 -2.76606
rtoes -5.95025
lfemur -58.4606 18.635 1.69462
ltibia 94.9246
lfoot -6.31872 -18.3058
ltoes -16.0921
103
root 7.15661 9.33852 -18.2481 -31.0639 0.781087 0.105024
lowerback 32.5272 2.97033 -3.7172
upperback 12.9136 2.73511 0.775437
thorax -3.18319 1.21089 2.07977
lowerneck -24.8842 -5.60659 -11.2249
upperneck 17.4339 -6.07937 10.184
head 10.3379 -2.35494 4.51912
rclavicle -3.51849e-014 -5.76476e-015
rhumerus -10.2777 8.68481 -79.6449
rradius 80.4661
rwrist 21.9342
rhand -0.980145 25.7933
rfingers 7.12502
rthumb 24.6512 -2.63903
lclavicle -3.51849e-014 -5.76476e-015
lhumerus -7.00264 -13.947 83.3652
lradius 72.4454
lwrist -32.1639
lhand -6.08594 28.0793
lfingers 7.12502
lthumb 19.7497 57.096
rfemur -60.7141 -19.7911 2.04644
rtibia 99.5356
rfoot -4.65382 -2.64841
rtoes -6.68135
lfemur -58.7823 18.7881 1.60999
ltibia 95.0415
lfoot -6.34548 -18.3937
ltoes -16.4096
104
root 7.15317 9.34158 -18.2489 -30.9812 0.768301 0.141798
lowerback 33.1496 3.0773 -3.73957
upperback 12.5062 2.81983 0.880036
thorax -3.41941 1.2528 1.99047
lowerneck -24.7677 -5.65332 -11.0435
upperneck 17.3193 -6.15927 9.95522
head 10.2703 -2.4091 4.38836
rclavicle 6.5102e-015 1.17283e-014
rhumerus -10.0132 9.02423 -79.4652
rradius 78.4084
rwrist 22.0787
rhand 0.310655 25.7271
rfingers 7.12502
rthumb 25.8879 -2.53056
lclavicle 6.5102e-015 1.17283e-014
lhumerus -6.84847 -14.6848 83.4674
lradius 71.2954
lwrist -31.6959
lhand -10.0182 28.5302
lfingers 7.12502
lthumb 15.9661 57.8921
rfemur -60.8253 -19.7884 2.0765
rtibia 99.5595
rfoot -4.75064 -2.65858
rtoes -5.84842
lfemur -58.8623 18.8683 1.55433
ltibia 95.0914
lfoot -6.44763 -18.3415
ltoes -17.4151
105
root 7.15053 9.34567 -18.2488 -30.928 0.610889 -0.131679
lowerback 33.2752 3.00023 -3.40096
upperback 12.461 2.82479 0.954799
thorax -3.50901 1.26427 1.88352
lowerneck -24.6186 -5.67392 -10.8468
upperneck 17.158 -6.18598 9.63385
head 10.1695 -2.44965 4.23001
rclavicle 9.64106e-015 0
rhumerus -9.99586 9.33399 -79.5089
rradius 76.5888
rwrist 21.3547
rhand 2.3092 26.5565
rfingers 7.12502
rthumb 27.8003 -1.40724
lclavicle 9.64106e-015 0
lhumerus -6.84249 -14.9605 83.509
lradius 70.8451
lwrist -31.7452
lhand -12.8582 27.9319
lfingers 7.12502
lthumb 13.2299 57.4921
rfemur -60.8715 -19.7203 2.49176
rtibia 99.5664
rfoot -5.11139 -2.88359
rtoes -4.17852
lfemur -58.9377 18.9218 1.93142
ltibia 95.174
lfoot -6.85236 -18.4185
ltoes -19.5019
106
root 7.14818 9.33595 -18.2333 -31.0011 0.333364 -0.688196
lowerback 33.487 2.81151 -2.76583
upperback 12.5101 2.78393 1.10616
thorax -3.52051 1.25697 1.71483
lowerneck -24.5405 -5.69798 -11.0585
upperneck 16.9329 -6.18232 9.82868
head 10.0897 -2.44159 4.33309
rclavicle 3.32964e-014 -1.13307e-014
rhumerus -9.79039 9.80754 -79.6139
rradius 74.9482
rwrist 20.255
rhand 3.5791 27.7144
rfingers 7.12502
rthumb 29.0138 -0.0469479
lclavicle 3.32964e-014 -1.13307e-014
lhumerus -6.72997 -14.9418 83.4506
lradius 70.9158
lwrist -32.3195
lhand -13.2458 27.8029
lfingers 7.12502
lthumb 12.8562 57.387
rfemur -60.8108 -19.6858 3.1536
rtibia 99.651
rfoot -5.504 -3.0332
rtoes -3.03449
lfemur -58.9344 19.0319 2.79154
ltibia 95.3236
lfoot -7.16441 -18.8485
ltoes -18.7976
107
root 7.14901 9.328 -18.2184 -30.9262 0.332872 -0.80185
lowerback 33.5295 2.70235 -2.71174
upperback 12.595 2.66671 1.19987
thorax -3.44258 1.19532 1.82293
lowerneck -24.3971 -5.65252 -11.3166
upperneck 16.544 -6.062 10.0278
head 9.92817 -2.38401 4.46171
rclavicle 2.11706e-014 -7.15625e-015
rhumerus -9.53653 10.4289 -79.71
rradius 74.1402
rwrist 19.9083
rhand 2.44599 28.3709
rfingers 7.12502
rthumb 27.931 0.428362
lclavicle 2.11706e-014 -7.15625e-015
lhumerus -6.57728 -14.5514 83.4857
lradius 71.2416
lwrist -33.5445
lhand -11.8421 28.0925
lfingers 7.12502
lthumb 14.2092 57.5865
rfemur -60.8602 -19.8484 3.18466
rtibia 99.7233
rfoot -5.58279 -2.8828
rtoes -2.61694
lfemur -59.0576 19.0049 2.95882
ltibia 95.4416
lfoot -7.11663 -19.0247
ltoes -16.6573
108
root 7.15619 9.33577 -18.2184 -30.6365 0.614661 -0.404392
lowerback 33.3665 2.63413 -3.26226
upperback 12.6233 2.41343 1.18618
thorax -3.35454 1.0515 2.18648
lowerneck -24.4254 -5.5118 -11.7499
upperneck 16.4023 -5.7537 10.2615
head 9.86797 -2.24256 4.66725
rclavicle -1.31695e-015 2.05742e-014
rhumerus -9.30658 11.3129 -79.7228
rradius 74.1834
rwrist 20.2391
rhand -0.890587 28.4007
rfingers 7.12502
rthumb 24.7371 -0.0198502
lclavicle -1.31695e-015 2.05742e-014
lhumerus -6.55055 -13.8227 83.6635
lradius 71.6885
lwrist -34.586
lhand -9.97614 28.7578
lfingers 7.12502
lthumb 16.0066 58.1165
rfemur -60.9614 -20.0313 2.55166
rtibia 99.6689
rfoot -5.45227 -2.58125
rtoes -2.52786
lfemur -59.3682 18.7421 2.29897
ltibia 95.5032
lfoot -6.87282 -18.7443
ltoes -16.5566
109
root 7.15672 9.34232 -18.2178 -30.4755 0.679817 -0.390647
lowerback 33.3973 2.47826 -3.37664
upperback 12.6298 2.18172 1.24965
thorax -3.35145 0.929735 2.38777
lowerneck -24.8754 -5.48007 -12.5719
upperneck 16.756 -5.51244 10.8086
head 10.0867 -2.11213 5.05444
rclavicle -9.93923e-017 -2.80286e-014
rhumerus -9.06615 11.8955 -79.7114
rradius 74.4505
rwrist 20.578
rhand -3.75647 28.3641
rfingers 7.12502
rthumb 21.9878 -0.406123
lclavicle -9.93923e-017 -2.80286e-014
lhumerus -6.64245 -13.3228 83.7805
lradius 72.2491
lwrist -34.4485
lhand -8.93147 29.9452
lfingers 7.12502
lthumb 17.0124 59.2203
rfemur -60.9535 -19.9902 2.42938
rtibia 99.6448
rfoot -5.18197 -2.20569
rtoes -5.83509
lfemur -59.6483 18.6543 2.16381
ltibia 95.5539
lfoot -6.68654 -18.6401
ltoes -17.2334
110
root 7.14932 9.34481 -18.2098 -30.3612 0.569088 -0.510285
lowerback 33.5093 2.60604 -3.0851
upperback 12.5393 2.42906 1.22114
thorax -3.49528 1.06594 2.11898
lowerneck -24.8554 -5.63628 -12.3695
upperneck 16.9408 -5.81016 10.769
head 10.181 -2.2413 4.96062
rclavicle 3.23025e-016 1.17283e-014
rhumerus -9.48731 11.1508 -79.8805
rradius 75.0765
rwrist 20.6953
rhand -5.66266 27.7694
rfingers 7.12502
rthumb 20.1566 -1.20491
lclavicle 3.23025e-016 1.17283e-014
lhumerus -6.76426 -14.0855 83.748
lradius 72.773
lwrist -33.354
lhand -8.93407 30.4402
lfingers 7.12502
lthumb 17.0099 59.7154
rfemur -61.196 -19.8384 2.64283
rtibia 99.7672
rfoot -5.59956 -2.53492
rtoes -2.98615
lfemur -59.7971 18.8176 2.27149
ltibia 95.5404
lfoot -6.9759 -18.57
ltoes -18.6943
111
root 7.14573 9.34769 -18.1996 -30.0389 0.608769 -0.141152
lowerback 33.3868 2.75337 -3.4369
upperback 12.5298 2.50559 1.15505
thorax -3.47075 1.09499 2.21363
lowerneck -24.9852 -5.68478 -12.0594
upperneck 16.8209 -5.87379 10.3864
head 10.144 -2.29007 4.75272
rclavicle -1.2921e-015 -6.95746e-016
rhumerus -9.70363 10.9642 -79.9688
rradius 76.0437
rwrist 20.3243
rhand -7.32309 26.5992
rfingers 7.12502
rthumb 18.5601 -2.5354
lclavicle -1.2921e-015 -6.95746e-016
lhumerus -6.76036 -14.1347 83.8557
lradius 73.2467
lwrist -32.1481
lhand -8.92645 30.2898
lfingers 7.12502
lthumb 17.0172 59.5644
rfemur -61.7855 -19.8203 2.40035
rtibia 99.9342
rfoot -5.64186 -2.44443
rtoes -2.41181
lfemur -59.9396 18.908 1.82499
ltibia 95.4796
lfoot -6.90036 -18.2494
ltoes -17.952
112
root 7.14487 9.34896 -18.191 -29.6388 0.769444 0.511567
lowerback 33.2807 2.91592 -4.02287
upperback 12.4636 2.5219 0.986586
thorax -3.50937 1.09218 2.34297
lowerneck -24.7044 -5.71903 -11.9531
upperneck 16.2291 -5.92671 10.2824
head 9.88317 -2.32514 4.67504
rclavicle -1.30452e-014 1.80894e-014
rhumerus -10.0126 10.6272 -80.193
rradius 77.2452
rwrist 19.6562
rhand -7.28819 25.4849
rfingers 7.12502
rthumb 18.5936 -3.64647
lclavicle -1.30452e-014 1.80894e-014
lhumerus -6.76938 -14.1939 83.9342
lradius 73.7612
lwrist -30.6573
lhand -8.75667 30.0562
lfingers 7.12502
lthumb 17.1807 59.3166
rfemur -62.4183 -19.9402 1.89437
rtibia 100.01
rfoot -5.575 -2.36774
rtoes -2.51946
lfemur -60.1891 18.9735 1.04351
ltibia 95.4669
lfoot -6.45488 -17.9977
ltoes -15.794
